<svg viewBox="0 0 66 64" fill="none" xmlns="http://www.w3.org/2000/svg">
<path d="M5 10.0171C5 8.62695 6.13828 7.5 7.4795 7.5H52.5205C53.89 7.5 55 8.62487 55 10.0171V42.5H5V10.0171ZM2.5 47.5H57.5V52.5H2.5V47.5Z" fill="#d1d1d1"/>
<path d="M62 48H63C63.5523 48 64 48.4477 64 49V59C64 59.5523 63.5523 60 63 60H47C46.4477 60 46 59.5523 46 59V49C46 48.4477 46.4477 48 47 48H48V47C48 43.134 51.134 40 55 40C58.866 40 62 43.134 62 47V48ZM60 48V47C60 44.2386 57.7614 42 55 42C52.2386 42 50 44.2386 50 47V48H60ZM54 52V56H56V52H54Z" fill="black"/>
</svg>
