<svg viewBox="0 0 60 60" fill="none" xmlns="http://www.w3.org/2000/svg">
<g clip-path="url(#clip0_102_28)">
<path d="M15 5H45C46.3807 5 47.5 6.1193 47.5 7.5V52.5C47.5 53.8807 46.3807 55 45 55H15C13.6193 55 12.5 53.8807 12.5 52.5V7.5C12.5 6.1193 13.6193 5 15 5ZM30 42.5C28.6193 42.5 27.5 43.6193 27.5 45C27.5 46.3807 28.6193 47.5 30 47.5C31.3807 47.5 32.5 46.3807 32.5 45C32.5 43.6193 31.3807 42.5 30 42.5Z" fill="#d1d1d1"/>
<path d="M54 48H55C55.5523 48 56 48.4477 56 49V59C56 59.5523 55.5523 60 55 60H39C38.4477 60 38 59.5523 38 59V49C38 48.4477 38.4477 48 39 48H40V47C40 43.134 43.134 40 47 40C50.866 40 54 43.134 54 47V48ZM52 48V47C52 44.2386 49.7614 42 47 42C44.2386 42 42 44.2386 42 47V48H52ZM46 52V56H48V52H46Z" fill="black"/>
</g>
<defs>
<clipPath id="clip0_102_28">
<rect width="60" height="60" fill="white"/>
</clipPath>
</defs>
</svg>
