<svg viewBox="0 0 60 60" fill="none" xmlns="http://www.w3.org/2000/svg">
<g clip-path="url(#clip0_102_27)">
<path d="M12.5 5H47.5C48.8807 5 50 6.1193 50 7.5V52.5C50 53.8807 48.8807 55 47.5 55H12.5C11.1193 55 10 53.8807 10 52.5V7.5C10 6.1193 11.1193 5 12.5 5ZM30 42.5C28.6193 42.5 27.5 43.6193 27.5 45C27.5 46.3807 28.6193 47.5 30 47.5C31.3807 47.5 32.5 46.3807 32.5 45C32.5 43.6193 31.3807 42.5 30 42.5Z" fill="#d1d1d1"/>
<path d="M57 48H58C58.5523 48 59 48.4477 59 49V59C59 59.5523 58.5523 60 58 60H42C41.4477 60 41 59.5523 41 59V49C41 48.4477 41.4477 48 42 48H43V47C43 43.134 46.134 40 50 40C53.866 40 57 43.134 57 47V48ZM55 48V47C55 44.2386 52.7614 42 50 42C47.2386 42 45 44.2386 45 47V48H55ZM49 52V56H51V52H49Z" fill="black"/>
</g>
<defs>
<clipPath id="clip0_102_27">
<rect width="60" height="60" fill="white"/>
</clipPath>
</defs>
</svg>
